<?xml version="1.0" standalone="no"?>
<!DOCTYPE svg PUBLIC "-//W3C//DTD SVG 20010904//EN"
 "http://www.w3.org/TR/2001/REC-SVG-20010904/DTD/svg10.dtd">
<svg version="1.0" xmlns="http://www.w3.org/2000/svg"
 width="261.000000pt" height="261.000000pt" viewBox="0 0 261.000000 261.000000"
 preserveAspectRatio="xMidYMid meet">
<metadata>
Created by potrace 1.11, written by Peter Selinger 2001-2013
</metadata>
<g transform="translate(0.000000,261.000000) scale(0.100000,-0.100000)"
fill="#000000" stroke="none">
<path d="M1250 2439 c0 -5 -5 -8 -12 -6 -6 1 -27 -36 -47 -82 -33 -77 -61
-113 -61 -79 0 10 -3 9 -10 -2 -6 -10 -10 -11 -10 -3 0 9 -7 10 -22 5 -13 -4
-54 -7 -91 -6 -37 0 -70 -3 -73 -8 -3 -4 -10 -6 -15 -3 -12 8 -28 -33 -22 -56
7 -27 43 -36 141 -34 50 1 92 1 92 -1 0 -5 -89 -236 -92 -240 -2 -2 -66 -4
-141 -6 -75 -1 -137 -6 -137 -10 0 -5 -6 -8 -14 -8 -19 0 -25 -29 -12 -57 10
-26 15 -26 164 -25 56 1 102 0 102 -3 0 -2 -21 -59 -46 -127 -25 -68 -54 -145
-63 -173 -10 -27 -47 -129 -84 -227 -82 -219 -81 -239 9 -229 14 1 28 35 100
231 31 85 69 189 85 230 26 69 95 258 104 288 3 6 12 12 22 13 10 0 82 2 159
3 l142 3 137 -368 c129 -346 166 -429 178 -397 4 10 6 10 6 -1 1 -9 10 -4 26
13 18 20 24 34 19 49 -3 12 -62 174 -131 360 -70 185 -123 340 -119 344 3 4
58 7 120 7 95 1 117 4 134 19 12 11 18 26 15 37 -11 40 -30 45 -177 45 l-140
0 -43 114 c-24 63 -42 116 -39 118 10 10 46 10 46 0 0 -8 3 -8 8 -2 4 6 42 10
86 10 70 0 80 2 97 23 15 19 16 28 7 48 -13 28 -6 27 -167 28 l-124 1 -17 51
c-26 76 -47 111 -70 117 -11 3 -20 1 -20 -4z m85 -390 c23 -63 41 -116 39
-118 -4 -4 -217 -9 -226 -4 -3 1 3 27 14 56 11 28 29 79 40 112 21 59 35 78
50 69 4 -3 8 0 8 6 0 7 6 8 17 2 9 -6 35 -61 58 -123z"/>
<path d="M585 937 c-3 -6 -4 -163 -3 -347 l3 -335 40 0 40 0 5 244 5 245 30
-44 c17 -23 35 -50 40 -59 6 -9 37 -54 70 -99 33 -46 65 -91 70 -100 6 -10 13
-19 16 -22 3 -3 21 -27 39 -55 19 -27 37 -51 42 -53 4 -2 8 -8 8 -14 0 -14 33
-52 48 -56 6 -1 12 8 12 20 1 43 1 663 1 674 -1 6 -20 10 -43 10 l-43 -1 -2
-220 c-1 -121 -2 -226 -2 -234 -1 -11 -4 -11 -16 -1 -8 7 -15 18 -15 25 0 8
-4 15 -8 17 -4 2 -37 44 -72 93 -35 50 -68 91 -72 93 -4 2 -8 10 -8 17 0 7 -4
15 -8 17 -5 2 -23 26 -42 53 -19 28 -40 56 -47 63 -7 7 -13 17 -13 20 0 11
-50 62 -61 62 -5 0 -12 -6 -14 -13z"/>
<path d="M1550 947 c0 -3 -28 -156 -35 -192 -12 -60 -85 -460 -86 -470 -3 -27
4 -32 41 -31 33 1 42 5 45 21 2 11 8 45 14 75 6 30 18 98 26 150 9 52 21 118
27 145 l11 50 23 -70 c52 -162 126 -371 133 -378 14 -14 26 15 96 227 41 125
71 203 75 195 4 -8 11 -36 15 -64 5 -27 9 -54 10 -60 4 -18 37 -190 49 -258 4
-21 11 -35 16 -32 5 3 12 1 15 -5 5 -8 11 -8 20 0 7 6 20 8 28 4 13 -5 15 0
11 23 -4 23 -69 346 -79 393 -2 8 -13 65 -25 125 -12 61 -24 120 -27 132 -4
15 -11 20 -25 18 -26 -5 -26 -5 -32 -35 -8 -35 -134 -451 -139 -456 -2 -2 -34
92 -72 209 -89 277 -91 282 -115 284 -11 1 -20 1 -20 0z"/>
</g>
</svg>
