<?xml version="1.0" standalone="no"?>
<!DOCTYPE svg PUBLIC "-//W3C//DTD SVG 20010904//EN"
 "http://www.w3.org/TR/2001/REC-SVG-20010904/DTD/svg10.dtd">
<svg version="1.0" xmlns="http://www.w3.org/2000/svg"
 width="900.000000pt" height="900.000000pt" viewBox="0 0 900.000000 900.000000"
 preserveAspectRatio="xMidYMid meet">
<metadata>
Created by potrace 1.11, written by Peter Selinger 2001-2013
</metadata>
<g transform="translate(0.000000,900.000000) scale(0.100000,-0.100000)"
fill="#000000" stroke="none">
<path d="M1200 6885 c0 -3 213 -323 473 -712 259 -388 479 -719 487 -735 9
-16 28 -43 43 -61 74 -89 97 -120 97 -134 0 -8 435 -667 966 -1464 l967 -1450
1218 1828 c670 1005 1225 1831 1234 1835 8 5 15 14 15 21 0 7 16 29 35 50 19
21 35 43 35 49 0 6 11 26 25 44 14 18 25 37 25 43 0 6 101 163 225 349 l225
337 -647 3 c-510 2 -650 -1 -659 -10 -19 -20 -264 -409 -264 -418 0 -5 -11
-20 -25 -34 -14 -14 -25 -32 -25 -41 0 -19 -60 -115 -100 -160 -15 -16 -90
-129 -167 -250 -77 -121 -361 -565 -631 -987 -270 -422 -496 -778 -503 -790
l-12 -22 -16 21 c-9 12 -73 111 -142 220 -186 291 -685 1072 -764 1192 -37 58
-74 120 -83 138 -9 18 -19 33 -24 33 -4 0 -8 7 -8 16 0 9 -15 30 -34 48 -18
17 -39 49 -46 71 -7 22 -18 45 -25 50 -11 9 -273 415 -519 803 l-77 122 -650
0 c-357 0 -649 -2 -649 -5z"/>
<path d="M5200 6449 c-119 -9 -390 -36 -450 -45 -25 -3 -50 -12 -56 -19 -7 -9
-44 -15 -115 -18 -57 -3 -147 -12 -199 -21 -52 -8 -117 -18 -145 -22 -27 -4
-53 -12 -57 -18 -4 -6 -59 -13 -129 -16 -84 -4 -124 -9 -127 -18 -2 -6 -14
-12 -27 -12 -12 0 -28 -7 -35 -15 -7 -8 -28 -15 -46 -15 -19 0 -34 -4 -34 -9
0 -5 -33 -19 -72 -31 -249 -73 -558 -184 -558 -199 0 -31 30 -82 66 -114 24
-21 44 -46 44 -55 1 -47 13 -46 162 12 79 30 254 91 388 135 135 44 253 85
262 91 10 5 35 10 56 10 21 0 42 4 47 9 6 5 33 11 60 14 156 16 233 29 270 47
25 12 62 20 92 20 34 0 55 5 64 16 11 13 26 15 72 11 32 -3 120 1 195 9 75 7
233 17 350 20 156 5 212 10 212 19 0 7 7 19 16 26 25 20 100 141 108 172 l6
27 -162 -2 c-90 -1 -206 -5 -258 -9z"/>
<path d="M6870 6183 c-1 -16 -13 -43 -30 -63 -17 -19 -30 -40 -30 -47 0 -6
-16 -29 -35 -50 -19 -21 -35 -43 -35 -50 0 -7 21 -24 48 -39 178 -100 351
-246 441 -374 172 -243 209 -551 104 -860 -153 -448 -623 -934 -1253 -1293
-63 -36 -187 -107 -275 -157 -182 -104 -451 -240 -537 -272 -32 -11 -57 -23
-55 -25 12 -11 404 141 627 244 536 248 958 531 1300 873 525 523 695 1066
474 1515 -109 222 -318 419 -599 562 -137 69 -145 71 -145 36z"/>
<path d="M2021 5400 c-549 -378 -1013 -949 -1178 -1450 -69 -207 -78 -267 -77
-495 0 -182 3 -209 26 -295 72 -266 177 -447 378 -650 256 -259 591 -450 1050
-598 669 -216 1541 -284 2460 -191 918 92 1895 350 2740 724 191 84 568 269
585 286 5 6 -17 -2 -50 -19 -33 -16 -125 -59 -205 -95 -549 -245 -1117 -429
-1630 -527 -91 -18 -232 -49 -315 -71 -535 -138 -1173 -219 -1735 -219 -1388
0 -2382 389 -2747 1076 -98 184 -137 351 -137 579 1 248 50 439 178 700 75
151 114 218 199 335 184 256 373 456 619 652 l87 70 -25 26 c-14 15 -39 46
-55 70 -17 23 -34 42 -38 42 -5 0 -14 15 -22 33 -29 72 -28 72 -108 17z"/>
</g>
</svg>
